# xmcd
#
# Track frame offsets: 
#        150
#        12191
#        23768
#        32338
#        44609
#        57319
#        69770
#        78871
#        89794
#        107069
#        124952
#
# Disc length: 2089 seconds
#
# Revision: 0
# Processed by: cddbd v1.5.2PL0 Copyright (c) Steve Scherf et al.
# Submitted via: ExactAudioCopy v0.99pb3
#
DISCID=8608270b
DTITLE=Davis and Devitt - Midwestern Standard Time - Volume 2
DYEAR=2001
DGENRE=Blues
TTITLE0=Walkin' After Midnight
TTITLE1=It Had To Be You
TTITLE2=Interlude #4
TTITLE3=Makin' Whoopie
TTITLE4=All Of Me
TTITLE5=Georgia On My Mind
TTITLE6=Interlude #5
TTITLE7=Nobody Knows You When You're Down And Out
TTITLE8=Heart And Soul
TTITLE9=Coffee Song
TTITLE10=Interlude #6
EXTD=
EXTT0=
EXTT1=
EXTT2=
EXTT3=
EXTT4=
EXTT5=
EXTT6=
EXTT7=
EXTT8=
EXTT9=
EXTT10=
PLAYORDER=
